<?xml version="1.0" encoding="utf-8"?>
<!-- Uploaded to: SVG Repo, www.svgrepo.com, Generator: SVG Repo Mixer Tools -->
<svg width="800px" height="800px" viewBox="0 0 24 24" fill="none" xmlns="http://www.w3.org/2000/svg">
<g id="style=doutone">
<g id="battery-full">
<path id="vector (Stroke)" fill-rule="evenodd" clip-rule="evenodd" d="M20.6443 10H18.7155V8.5H20.6443C21.8869 8.5 22.8943 9.50736 22.8943 10.75V13.2504C22.8943 14.493 21.8869 15.5004 20.6443 15.5004H18.7155V14.0004H20.6443C21.0585 14.0004 21.3943 13.6646 21.3943 13.2504V10.75C21.3943 10.3358 21.0585 10 20.6443 10Z" fill="#BFBFBF"/>
<path id="vector (Stroke)_2" fill-rule="evenodd" clip-rule="evenodd" d="M15.2869 5.7998H5C3.61929 5.7998 2.5 6.91909 2.5 8.2998V15.7008C2.5 17.0815 3.61929 18.2008 5 18.2008H15.2869C16.6676 18.2008 17.7869 17.0815 17.7869 15.7008V8.2998C17.7869 6.91909 16.6676 5.7998 15.2869 5.7998ZM5 4.2998C2.79086 4.2998 1 6.09067 1 8.2998V15.7008C1 17.91 2.79086 19.7008 5 19.7008H15.2869C17.4961 19.7008 19.2869 17.91 19.2869 15.7008V8.2998C19.2869 6.09067 17.4961 4.2998 15.2869 4.2998H5Z" fill="#000000"/>
<path id="vector (Stroke)_3" fill-rule="evenodd" clip-rule="evenodd" d="M10 8.75C10.4142 8.75 10.75 9.08579 10.75 9.5V14.5C10.75 14.9142 10.4142 15.25 10 15.25C9.58579 15.25 9.25 14.9142 9.25 14.5V9.5C9.25 9.08579 9.58579 8.75 10 8.75Z" fill="#BFBFBF"/>
<path id="vector (Stroke)_4" fill-rule="evenodd" clip-rule="evenodd" d="M14 8.75C14.4142 8.75 14.75 9.08579 14.75 9.5V14.5C14.75 14.9142 14.4142 15.25 14 15.25C13.5858 15.25 13.25 14.9142 13.25 14.5V9.5C13.25 9.08579 13.5858 8.75 14 8.75Z" fill="#BFBFBF"/>
<path id="vector (Stroke)_5" fill-rule="evenodd" clip-rule="evenodd" d="M6 8.75C6.41421 8.75 6.75 9.08579 6.75 9.5V14.5C6.75 14.9142 6.41421 15.25 6 15.25C5.58579 15.25 5.25 14.9142 5.25 14.5V9.5C5.25 9.08579 5.58579 8.75 6 8.75Z" fill="#BFBFBF"/>
</g>
</g>
</svg>