<?xml version="1.0" encoding="utf-8"?>
<!-- Uploaded to: SVG Repo, www.svgrepo.com, Generator: SVG Repo Mixer Tools -->
<svg width="800px" height="800px" viewBox="0 0 24 24" fill="none" xmlns="http://www.w3.org/2000/svg">
<g id="style=doutone">
<g id="battery-semi">
<path id="vector (Stroke)" fill-rule="evenodd" clip-rule="evenodd" d="M20.6443 10.0005H18.7155V8.50049H20.6443C21.8869 8.50049 22.8943 9.50785 22.8943 10.7505V13.2509C22.8943 14.4935 21.8869 15.5009 20.6443 15.5009H18.7155V14.0009H20.6443C21.0585 14.0009 21.3943 13.6651 21.3943 13.2509V10.7505C21.3943 10.3363 21.0585 10.0005 20.6443 10.0005Z" fill="#BFBFBF"/>
<path id="vector (Stroke)_2" fill-rule="evenodd" clip-rule="evenodd" d="M15.2869 5.80005H5C3.61929 5.80005 2.5 6.91934 2.5 8.30005V15.7011C2.5 17.0818 3.61929 18.2011 5 18.2011H15.2869C16.6676 18.2011 17.7869 17.0818 17.7869 15.7011V8.30005C17.7869 6.91934 16.6676 5.80005 15.2869 5.80005ZM5 4.30005C2.79086 4.30005 1 6.09091 1 8.30005V15.7011C1 17.9102 2.79086 19.7011 5 19.7011H15.2869C17.4961 19.7011 19.2869 17.9102 19.2869 15.7011V8.30005C19.2869 6.09091 17.4961 4.30005 15.2869 4.30005H5Z" fill="#000000"/>
<path id="vector (Stroke)_3" fill-rule="evenodd" clip-rule="evenodd" d="M10 8.75C10.4142 8.75 10.75 9.08579 10.75 9.5V14.5C10.75 14.9142 10.4142 15.25 10 15.25C9.58579 15.25 9.25 14.9142 9.25 14.5V9.5C9.25 9.08579 9.58579 8.75 10 8.75Z" fill="#BFBFBF"/>
<path id="vector (Stroke)_4" fill-rule="evenodd" clip-rule="evenodd" d="M6 8.75C6.41421 8.75 6.75 9.08579 6.75 9.5V14.5C6.75 14.9142 6.41421 15.25 6 15.25C5.58579 15.25 5.25 14.9142 5.25 14.5V9.5C5.25 9.08579 5.58579 8.75 6 8.75Z" fill="#BFBFBF"/>
</g>
</g>
</svg>