<?xml version="1.0" encoding="utf-8"?>
<!-- Uploaded to: SVG Repo, www.svgrepo.com, Generator: SVG Repo Mixer Tools -->
<svg width="800px" height="800px" viewBox="0 0 1024 1024" class="icon"  version="1.1" xmlns="http://www.w3.org/2000/svg"><path d="M853.333333 960a21.333333 21.333333 0 0 1-11.306666-3.242667L512 750.506667 181.973333 956.8A21.333333 21.333333 0 1 1 149.333333 938.666667V42.645333a21.333333 21.333333 0 0 1 21.333334-21.333333h682.666666a21.333333 21.333333 0 0 1 21.333334 21.333333v896a21.333333 21.333333 0 0 1-21.333334 21.333334z" fill="#E86C60" /><path d="M640 405.333333H384a21.333333 21.333333 0 1 1 0-42.666666h256a21.333333 21.333333 0 1 1 0 42.666666z" fill="#FFFFFF" /></svg>